{"title":"End of the Line 2007 DVDrip English Klam","uid":6454586,"size":1472191574,"categoryP":"video","categoryS":"movies","magnet":"?xt=urn:btih:6c4beb517ecfc00ac66697759c7470951fa9fa35&amp;dn=End+of+the+Line+2007+DVDrip+English+Klam&amp;tr=udp%3A%2F%2Ftracker.openbittorrent.com%3A80&amp;tr=udp%3A%2F%2Fopen.demonii.com%3A1337&amp;tr=udp%3A%2F%2Ftracker.coppersurfer.tk%3A6969&amp;tr=udp%3A%2F%2Fexodus.desync.com%3A6969","seeders":0,"leechers":0,"uploader":"Klambake","files":-1,"time":1307541929,"description":"With: Ilona Elkin, Nicolas Wright and Robin Wilcock\n\nKaren (Ilona Elkin), een jonge verpleegster in een psychiatrische kliniek, heeft een verschrikkelijke dag. Haar ziekenhuis wordt overspoeld met nieuwe patiÃƒÂ«nten, die stuk voor stuk een chaotische indruk op haar maken. Viviane, een onlangs ontslagen patiÃƒÂ«nte, sprong de dag ervoor voor een naderende metro. Op de tekeningen die Viviane achter liet, ziet Karen demonen die op de ziekenhuismuren kruipen, hun ogen gloeien. Is dit een symptoom van een gestoorde geest of een toekomstvisie van dingen die staan te gebeuren? Ze heeft die dag avonddienst en is genoodzaakt de laatste metro van die nacht naar huis te nemen. Dan ineens, diep onder de grond tussen twee metrostations in, wordt er aan de noodrem getrokken. Het is een moment van berekening van occulte aanbidders en demonen die gedwongen zijn de metro-passagiers te confronteren met de Dag des Oordeels. Ieder voor zich zal zich af moeten vragen wie die kan vertrouwen en hoe in deze onheilspellende nacht te overleven.\n\nIn this unsettling and creepy thriller, Karen (Ilona Elkin), a young nurse who works in a psychiatric ward, boards the last subway train of the night only to have it stop suddenly in the middle of the tunnel. As those around her are brutally murdered, Karen and a handful of survivors must face supernatural forces, homicidal religious cult members, as well as their own fears and suspicions of Armageddon, in order to survive. \n\nGeneral:\n\nComplete name                    : End of the Line\\End of the Line.avi\nFormat                           : AVI\nFormat/Info                      : Audio Video Interleave\nFile size                        : 1.37 GiB\nDuration                         : 1h 30mn\nOverall bit rate                 : 2 162 Kbps\n\nVideo:\n\nFormat                           : MPEG-4 Visual\nFormat profile                   : Simple@L3\nFormat settings, BVOP            : No\nFormat settings, QPel            : No\nFormat settings, GMC             : No warppoints\nFormat settings, Matrix          : Default (H.263)\nCodec ID                         : XVID\nCodec ID/Hint                    : XviD\nDuration                         : 1h 30mn\nBit rate                         : 1 703 Kbps\nWidth                            : 704 pixels\nHeight                           : 396 pixels\nDisplay aspect ratio             : 16:9\nFrame rate                       : 25.000 fps\nColor space                      : YUV\nChroma subsampling               : 4:2:0\nBit depth                        : 8 bits\nScan type                        : Progressive\nBits/(Pixel*Frame)               : 0.244\nStream size                      : 1.08 GiB (79%)\nWriting library                  : XviD 1.1.2 (UTC 2006-11-01)\n\nAudio:\n\nFormat                           : AC-3\nFormat/Info                      : Audio Coding 3\nMode extension                   : CM (complete main)\nCodec ID                         : 2000\nDuration                         : 1h 30mn\nBit rate mode                    : Constant\nBit rate                         : 448 Kbps\nChannel(s)                       : 6 channels\nChannel positions                : Front: L C R, Side: L R, LFE\nSampling rate                    : 48.0 KHz\nBit depth                        : 16 bits\nStream size                      : 291 MiB (21%)\nAlignment                        : Aligned on interleaves\nInterleave, duration             : 32 ms (0.80 video frame)\nInterleave, preload duration     : 32 ms\n\n","torrent":{"xt":"urn:btih:6c4beb517ecfc00ac66697759c7470951fa9fa35","amp;dn":"End+of+the+Line+2007+DVDrip+English+Klam","amp;tr":["udp%3A%2F%2Ftracker.openbittorrent.com%3A80","udp%3A%2F%2Fopen.demonii.com%3A1337","udp%3A%2F%2Ftracker.coppersurfer.tk%3A6969","udp%3A%2F%2Fexodus.desync.com%3A6969"],"infoHash":"6c4beb517ecfc00ac66697759c7470951fa9fa35","infoHashBuffer":{"type":"Buffer","data":[108,75,235,81,126,207,192,10,198,102,151,117,156,116,112,149,31,169,250,53]},"announce":[],"urlList":[]}}